<svg width="30" height="32" viewBox="0 0 30 32" fill="none" xmlns="http://www.w3.org/2000/svg">
<path d="M22.3846 0C19.6659 0 17.4615 2.20677 17.4615 4.92308C17.4615 8.20308 21.7692 12.6843 21.7692 17.1926H23C23.0012 12.6843 27.3077 8.33231 27.3077 4.92308C27.3077 2.20677 25.1034 0 22.3846 0ZM22.3846 2.38523C22.7181 2.38539 23.0482 2.45123 23.3562 2.57898C23.6642 2.70673 23.944 2.89389 24.1797 3.12978C24.4153 3.36567 24.6022 3.64567 24.7297 3.95378C24.8571 4.2619 24.9226 4.5921 24.9225 4.92554C24.9223 5.25898 24.8565 5.58911 24.7287 5.89711C24.601 6.2051 24.4138 6.48492 24.1779 6.72058C23.942 6.95624 23.662 7.14313 23.3539 7.27058C23.0458 7.39803 22.7156 7.46355 22.3822 7.46339C21.7086 7.46306 21.0627 7.19517 20.5867 6.71866C20.1106 6.24214 19.8434 5.59603 19.8437 4.92246C19.844 4.24889 20.1119 3.60304 20.5884 3.12699C21.0649 2.65093 21.7111 2.38367 22.3846 2.384V2.38523ZM15 2.46154C6.856 2.46154 0.230774 9.08677 0.230774 17.2308C0.230774 25.3748 6.856 32 15 32C23.144 32 29.7692 25.3748 29.7692 17.2308C29.7692 14.7569 29.1563 12.4357 28.0769 10.384C27.9132 10.7089 27.7483 11.0178 27.5772 11.3465C27.2535 11.9717 26.9126 12.6031 26.6148 13.2308C26.9225 14.1108 27.1342 15.0412 27.2302 16H25.6154C25.5268 16.4123 25.4615 16.8 25.4615 17.1926V18.4615H27.2314C27.0644 20.1967 26.5263 21.8757 25.6535 23.3846H22.04C22.3108 22.2302 22.4671 20.9538 22.5779 19.6542H20.1532C20.0385 20.9134 19.8204 22.1611 19.5009 23.3846H10.4991C10.0831 21.7738 9.83809 20.1237 9.768 18.4615H19.3065V17.1926C19.2969 16.7908 19.2454 16.3911 19.1526 16H9.76924C9.83932 14.3379 10.0844 12.6877 10.5003 11.0769H17.0775C16.6506 10.2708 16.2524 9.44974 15.8837 8.61539H11.3459C12.3637 6.29292 13.7089 4.92308 15 4.92308C15 4.06769 15.1539 3.264 15.4234 2.49969C15.2819 2.49477 15.1428 2.46154 15 2.46154ZM9.92308 6.03815C9.43294 6.85675 9.02087 7.71962 8.69231 8.61539H6.23077C7.29242 7.53637 8.54417 6.66264 9.92308 6.03815ZM4.34647 11.0769H7.96001C7.58775 12.6937 7.36894 14.3421 7.30647 16H2.76862C2.93505 14.2647 3.4732 12.5857 4.34647 11.0769ZM2.76862 18.4615H7.3077C7.38031 20.2154 7.60677 21.8708 7.96124 23.3846H4.34647C3.47426 21.8754 2.93619 20.1966 2.76862 18.4615ZM6.23077 25.8462H8.69231C9.04677 26.8012 9.46154 27.6591 9.92308 28.4234C8.54417 27.7989 7.29242 26.9252 6.23077 25.8462ZM11.3459 25.8462H18.6542C17.6363 28.1686 16.2911 29.5385 15 29.5385C13.7089 29.5385 12.3625 28.1686 11.3459 25.8462ZM21.3077 25.8462H23.7692C22.7076 26.9252 21.4558 27.7989 20.0769 28.4234C20.5385 27.6603 20.9532 26.8025 21.3077 25.8462Z" fill="white"/>
</svg>
