<svg width="33" height="30" viewBox="0 0 33 30" fill="none" xmlns="http://www.w3.org/2000/svg">
<path d="M8.06606 8.59961C7.7478 8.59961 7.44257 8.72604 7.21753 8.95108C6.99249 9.17612 6.86606 9.48135 6.86606 9.79961V15.3996C6.86606 16.062 7.40366 16.5996 8.06606 16.5996H24.8661C25.1843 16.5996 25.4895 16.4732 25.7146 16.2481C25.9396 16.0231 26.0661 15.7179 26.0661 15.3996V9.79961C26.0661 9.48135 25.9396 9.17612 25.7146 8.95108C25.4895 8.72604 25.1843 8.59961 24.8661 8.59961H8.06606ZM9.26606 14.1996V10.9996H23.6661V14.1996H9.26606ZM19.2661 18.1996C18.9478 18.1996 18.6426 18.326 18.4175 18.5511C18.1925 18.7761 18.0661 19.0813 18.0661 19.3996V23.3996C18.0661 24.062 18.6037 24.5996 19.2661 24.5996H24.8661C25.1843 24.5996 25.4895 24.4732 25.7146 24.2481C25.9396 24.0231 26.0661 23.7179 26.0661 23.3996V19.3996C26.0661 19.0813 25.9396 18.7761 25.7146 18.5511C25.4895 18.326 25.1843 18.1996 24.8661 18.1996H19.2661ZM20.4661 22.1996V20.5996H23.6661V22.1996H20.4661ZM3.66606 0.599609C2.96166 0.59964 2.27694 0.832093 1.71811 1.26092C1.15928 1.68974 0.757555 2.29098 0.575239 2.97138C0.392924 3.65178 0.440206 4.37332 0.709752 5.02412C0.979298 5.67491 1.45604 6.21858 2.06606 6.57081V28.1996C2.06606 28.862 2.60366 29.3996 3.26606 29.3996H29.6661C29.9843 29.3996 30.2895 29.2732 30.5146 29.0481C30.7396 28.8231 30.8661 28.5179 30.8661 28.1996V6.57081C31.4761 6.21858 31.9528 5.67491 32.2224 5.02412C32.4919 4.37332 32.5392 3.65178 32.3569 2.97138C32.1746 2.29098 31.7728 1.68974 31.214 1.26092C30.6552 0.832093 29.9705 0.59964 29.2661 0.599609H3.66606ZM28.4661 6.99961V26.9996H15.6661V19.3996C15.6661 19.0813 15.5396 18.7761 15.3146 18.5511C15.0895 18.326 14.7843 18.1996 14.4661 18.1996H8.06606C7.7478 18.1996 7.44257 18.326 7.21753 18.5511C6.99249 18.7761 6.86606 19.0813 6.86606 19.3996V26.9996H4.46606V6.99961H28.4661ZM2.86606 3.79961C2.86606 3.58744 2.95034 3.38395 3.10037 3.23392C3.2504 3.08389 3.45389 2.99961 3.66606 2.99961H29.2661C29.4782 2.99961 29.6817 3.08389 29.8317 3.23392C29.9818 3.38395 30.0661 3.58744 30.0661 3.79961C30.0661 4.01178 29.9818 4.21527 29.8317 4.36529C29.6817 4.51532 29.4782 4.59961 29.2661 4.59961H3.66606C3.45389 4.59961 3.2504 4.51532 3.10037 4.36529C2.95034 4.21527 2.86606 4.01178 2.86606 3.79961ZM13.2661 26.9996H9.26606V20.5996H13.2661V26.9996Z" fill="white"/>
</svg>
