<svg width="31" height="26" viewBox="0 0 31 26" fill="none" xmlns="http://www.w3.org/2000/svg">
<path d="M6.7897 6.22372C6.7897 5.42496 7.10701 4.6589 7.67183 4.09409C8.23665 3.52927 9.0027 3.21196 9.80147 3.21196C10.6002 3.21196 11.3663 3.52927 11.9311 4.09409C12.4959 4.6589 12.8132 5.42496 12.8132 6.22372C12.8132 7.02249 12.4959 7.78855 11.9311 8.35336C11.3663 8.91818 10.6002 9.23549 9.80147 9.23549C9.0027 9.23549 8.23665 8.91818 7.67183 8.35336C7.10701 7.78855 6.7897 7.02249 6.7897 6.22372ZM9.80147 0.200195C8.20393 0.200195 6.67182 0.834815 5.54219 1.96445C4.41256 3.09408 3.77794 4.62619 3.77794 6.22372C3.77794 7.82126 4.41256 9.35337 5.54219 10.483C6.67182 11.6126 8.20393 12.2473 9.80147 12.2473C11.399 12.2473 12.9311 11.6126 14.0607 10.483C15.1904 9.35337 15.825 7.82126 15.825 6.22372C15.825 4.62619 15.1904 3.09408 14.0607 1.96445C12.9311 0.834815 11.399 0.200195 9.80147 0.200195ZM21.8485 7.72961C21.8485 7.33022 22.0072 6.9472 22.2896 6.66479C22.572 6.38238 22.955 6.22372 23.3544 6.22372C23.7538 6.22372 24.1368 6.38238 24.4192 6.66479C24.7016 6.9472 24.8603 7.33022 24.8603 7.72961C24.8603 8.12899 24.7016 8.51202 24.4192 8.79443C24.1368 9.07683 23.7538 9.23549 23.3544 9.23549C22.955 9.23549 22.572 9.07683 22.2896 8.79443C22.0072 8.51202 21.8485 8.12899 21.8485 7.72961ZM23.3544 3.21196C22.1563 3.21196 21.0072 3.68793 20.16 4.53515C19.3127 5.38237 18.8368 6.53145 18.8368 7.72961C18.8368 8.92776 19.3127 10.0768 20.16 10.9241C21.0072 11.7713 22.1563 12.2473 23.3544 12.2473C24.5526 12.2473 25.7016 11.7713 26.5489 10.9241C27.3961 10.0768 27.8721 8.92776 27.8721 7.72961C27.8721 6.53145 27.3961 5.38237 26.5489 4.53515C25.7016 3.68793 24.5526 3.21196 23.3544 3.21196ZM0.766174 19.0237C0.766174 16.9456 2.45276 15.259 4.53088 15.259H15.0721C17.1502 15.259 18.8368 16.9456 18.8368 19.0237V19.1683C18.8344 19.2781 18.8264 19.3876 18.8127 19.4966C18.7862 19.7605 18.7409 20.0222 18.6771 20.2796C18.4752 21.1131 18.112 21.8989 17.608 22.5927C16.331 24.3485 13.9517 25.8002 9.80147 25.8002C5.65126 25.8002 3.27196 24.3485 1.99497 22.5927C1.33462 21.681 0.919776 20.6148 0.790268 19.4966C0.778165 19.3865 0.770128 19.276 0.766174 19.1653V19.0237ZM3.77794 19.102C3.79042 19.2604 3.8156 19.4175 3.85323 19.5719C3.93455 19.9122 4.1002 20.367 4.43149 20.8217C5.03385 21.653 6.41926 22.7884 9.80147 22.7884C13.1807 22.7884 14.5661 21.653 15.1714 20.8217C15.536 20.3167 15.7614 19.7247 15.825 19.105V19.0237C15.825 18.824 15.7457 18.6325 15.6045 18.4913C15.4633 18.3501 15.2718 18.2708 15.0721 18.2708H4.53088C4.33119 18.2708 4.13967 18.3501 3.99847 18.4913C3.85727 18.6325 3.77794 18.824 3.77794 19.0237V19.102ZM23.3514 24.2943C22.4062 24.3037 21.4632 24.2026 20.5414 23.9931C21.0921 23.1238 21.4827 22.163 21.6949 21.1561C22.1618 21.2344 22.7099 21.2825 23.3514 21.2825C26.0319 21.2825 27.0498 20.4633 27.4474 19.9664C27.6684 19.6913 27.8137 19.3632 27.869 19.0147V18.9996C27.8628 18.8041 27.7807 18.6188 27.6402 18.4827C27.4996 18.3467 27.3117 18.2707 27.1161 18.2708H21.8064C21.6876 17.193 21.3105 16.1599 20.7071 15.259H27.1191C29.1972 15.259 30.8838 16.9456 30.8838 19.0237V19.0749C30.8812 19.1686 30.8742 19.262 30.8627 19.355C30.7432 20.2664 30.3766 21.1278 29.8026 21.8457C28.6913 23.2312 26.7005 24.2943 23.3544 24.2943H23.3514Z" fill="white"/>
</svg>
