<svg class="logo-abbr" width="53" height="53" viewbox="0 0 53 53">
					<path  d="M0 21.5675C0 9.20365 10.9655 0 23.4277 0C35.8899 0 46.8554 9.20365 46.8554 21.5675V42.1973C46.8554 44.7867 44.7576 46.8858 42.1699 46.8858C39.5821 46.8858 37.4843 44.7867 37.4843 42.1973V21.5675C37.4843 15.2874 31.6675 9.37717 23.4277 9.37717C15.1879 9.37717 9.37108 15.2874 9.37108 21.5675V42.1973C9.37108 44.7867 7.27329 46.8858 4.68554 46.8858C2.09779 46.8858 0 44.7867 0 42.1973V21.5675Z" fill="#759DD9"></path>
					<path d="M30.456 35.1644C30.456 39.0486 27.3093 42.1973 23.4277 42.1973C19.5461 42.1973 16.3994 39.0486 16.3994 35.1644C16.3994 31.2803 19.5461 28.1315 23.4277 28.1315C27.3093 28.1315 30.456 31.2803 30.456 35.1644Z" fill="#759DD9"></path>
					
				</svg>
                <svg class="brand-title" width="343" height="53" viewBox="53 0 343 53">
					<path d="M272.156 56C271.601 56 271.121 55.8682 270.716 55.6047C270.313 55.3386 270.002 54.9686 269.783 54.4948C269.564 54.0184 269.455 53.4661 269.455 52.838C269.455 52.2045 269.564 51.6509 269.783 51.1771C270.002 50.7007 270.313 50.3307 270.716 50.0672C271.121 49.8011 271.601 49.668 272.156 49.668C272.711 49.668 273.189 49.8011 273.592 50.0672C273.997 50.3307 274.309 50.7007 274.528 51.1771C274.747 51.6509 274.857 52.2045 274.857 52.838C274.857 53.4661 274.747 54.0184 274.528 54.4948C274.309 54.9686 273.997 55.3386 273.592 55.6047C273.189 55.8682 272.711 56 272.156 56ZM272.163 54.6825C272.415 54.6825 272.626 54.6026 272.795 54.4429C272.964 54.2806 273.092 54.0597 273.177 53.7802C273.266 53.5007 273.31 53.1827 273.31 52.826C273.31 52.4693 273.266 52.1513 273.177 51.8718C273.092 51.5923 272.964 51.3714 272.795 51.2091C272.626 51.0467 272.415 50.9655 272.163 50.9655C271.908 50.9655 271.694 51.0467 271.52 51.2091C271.348 51.3714 271.218 51.5923 271.13 51.8718C271.044 52.1513 271.002 52.4693 271.002 52.826C271.002 53.1827 271.044 53.5007 271.13 53.7802C271.218 54.0597 271.348 54.2806 271.52 54.4429C271.694 54.6026 271.908 54.6825 272.163 54.6825Z" fill="#8F8F8F"/>

				</svg>